<svg id="Слой_1" data-name="Слой 1" xmlns="http://www.w3.org/2000/svg" xmlns:xlink="http://www.w3.org/1999/xlink" viewBox="0 0 342.11 331.93"><defs><style>.cls-1{fill:#422918;stroke-miterlimit:10;stroke-width:0.25px;stroke:url(#Безымянный_градиент_23);}.cls-2{fill:#f4ede9;}.cls-3{fill:#442518;}</style><linearGradient id="Безымянный_градиент_23" x1="59.29" y1="336.96" x2="367.65" y2="336.96" gradientUnits="userSpaceOnUse"><stop offset="0" stop-color="#fff"/><stop offset="0.6" stop-color="#fff"/><stop offset="1" stop-color="#9b9a9a"/></linearGradient></defs><title>glasse</title><g id="coffee-cup-20-coffee-cup-20"><path class="cls-1" d="M59.43,235l26.83,190.8c.58,7.48,5.45,13.18,11.25,13.18h230c5.78,0,10.64-5.7,11.22-13.18L367.51,235Z" transform="translate(-43.43 -107.15)"/></g><polygon class="cls-2" points="0 17.87 16.25 129.21 323.81 129.21 341.08 17.87 0 17.87"/><path class="cls-3" d="M284.72,114.5c3.22,0,3.22-5,0-5s-3.22,5,0,5Z" transform="translate(-43.43 -107.15)"/><path class="cls-3" d="M85.47,118.55c3.22,0,3.22-5,0-5s-3.22,5,0,5Z" transform="translate(-43.43 -107.15)"/><path class="cls-3" d="M345.43,114.28c3.22,0,3.22-5,0-5s-3.22,5,0,5Z" transform="translate(-43.43 -107.15)"/><path class="cls-3" d="M90.36,120.68c3.22,0,3.22-5,0-5s-3.22,5,0,5Z" transform="translate(-43.43 -107.15)"/><path class="cls-3" d="M96.47,120.68c3.22,0,3.22-5,0-5s-3.22,5,0,5Z" transform="translate(-43.43 -107.15)"/><path class="cls-3" d="M96.47,116c3.22,0,3.22-5,0-5s-3.22,5,0,5Z" transform="translate(-43.43 -107.15)"/><path class="cls-3" d="M104.62,129.64c3.22,0,3.22-5,0-5s-3.22,5,0,5Z" transform="translate(-43.43 -107.15)"/><path class="cls-3" d="M86.28,128.36c3.22,0,3.22-5,0-5s-3.22,5,0,5Z" transform="translate(-43.43 -107.15)"/><path class="cls-3" d="M94,133.06c3.22,0,3.22-5,0-5s-3.22,5,0,5Z" transform="translate(-43.43 -107.15)"/><path class="cls-3" d="M96.06,128.36c3.22,0,3.22-5,0-5s-3.22,5,0,5Z" transform="translate(-43.43 -107.15)"/><path class="cls-3" d="M104.21,124.1c3.22,0,3.22-5,0-5s-3.22,5,0,5Z" transform="translate(-43.43 -107.15)"/><path class="cls-3" d="M243,114.5c3.22,0,3.22-5,0-5s-3.22,5,0,5Z" transform="translate(-43.43 -107.15)"/><path class="cls-3" d="M73.65,120.26c3.22,0,3.22-5,0-5s-3.22,5,0,5Z" transform="translate(-43.43 -107.15)"/><path class="cls-3" d="M75.28,128.79c3.22,0,3.22-5,0-5s-3.22,5,0,5Z" transform="translate(-43.43 -107.15)"/><path class="cls-3" d="M61.83,128.79c3.22,0,3.22-5,0-5s-3.22,5,0,5Z" transform="translate(-43.43 -107.15)"/><path class="cls-3" d="M80.17,122.82c3.22,0,3.22-5,0-5s-3.22,5,0,5Z" transform="translate(-43.43 -107.15)"/><path class="cls-3" d="M55.31,121.54c3.22,0,3.22-5,0-5s-3.22,5,0,5Z" transform="translate(-43.43 -107.15)"/><path class="cls-3" d="M63.46,117.27c3.22,0,3.22-5,0-5s-3.22,5,0,5Z" transform="translate(-43.43 -107.15)"/><path class="cls-3" d="M66.72,130.92c3.22,0,3.22-5,0-5s-3.22,5,0,5Z" transform="translate(-43.43 -107.15)"/><path class="cls-3" d="M52.87,130.92c3.22,0,3.22-5,0-5s-3.22,5,0,5Z" transform="translate(-43.43 -107.15)"/><path class="cls-3" d="M66.32,123.67c3.22,0,3.22-5,0-5s-3.22,5,0,5Z" transform="translate(-43.43 -107.15)"/><path class="cls-3" d="M79.76,134.34c3.22,0,3.22-5,0-5s-3.22,5,0,5Z" transform="translate(-43.43 -107.15)"/><path class="cls-3" d="M103,135.19c3.22,0,3.22-5,0-5s-3.22,5,0,5Z" transform="translate(-43.43 -107.15)"/><path class="cls-3" d="M112,135.19c3.22,0,3.22-5,0-5s-3.22,5,0,5Z" transform="translate(-43.43 -107.15)"/><path class="cls-3" d="M110.73,130.5c3.22,0,3.22-5,0-5s-3.22,5,0,5Z" transform="translate(-43.43 -107.15)"/><path class="cls-3" d="M105.84,119c3.22,0,3.22-5,0-5s-3.22,5,0,5Z" transform="translate(-43.43 -107.15)"/><path class="cls-3" d="M112.77,117.7c3.22,0,3.22-5,0-5s-3.22,5,0,5Z" transform="translate(-43.43 -107.15)"/><path class="cls-3" d="M113.58,126.23c3.22,0,3.22-5,0-5s-3.22,5,0,5Z" transform="translate(-43.43 -107.15)"/><path class="cls-3" d="M118.47,131.78c3.22,0,3.22-5,0-5s-3.22,5,0,5Z" transform="translate(-43.43 -107.15)"/><path class="cls-3" d="M131.1,132.63c3.22,0,3.22-5,0-5s-3.22,5,0,5Z" transform="translate(-43.43 -107.15)"/><path class="cls-3" d="M122.14,135.62c3.22,0,3.22-5,0-5s-3.22,5,0,5Z" transform="translate(-43.43 -107.15)"/><path class="cls-3" d="M123.77,129.22c3.22,0,3.22-5,0-5s-3.22,5,0,5Z" transform="translate(-43.43 -107.15)"/><path class="cls-3" d="M119.69,122c3.22,0,3.22-5,0-5s-3.22,5,0,5Z" transform="translate(-43.43 -107.15)"/><path class="cls-3" d="M124.58,123.24c3.22,0,3.22-5,0-5s-3.22,5,0,5Z" transform="translate(-43.43 -107.15)"/><path class="cls-3" d="M126.62,123.24c3.22,0,3.22-5,0-5s-3.22,5,0,5Z" transform="translate(-43.43 -107.15)"/><path class="cls-3" d="M136,127.08c3.22,0,3.22-5,0-5s-3.22,5,0,5Z" transform="translate(-43.43 -107.15)"/><path class="cls-3" d="M122.55,117.7c3.22,0,3.22-5,0-5s-3.22,5,0,5Z" transform="translate(-43.43 -107.15)"/><path class="cls-3" d="M130.7,121.11c3.22,0,3.22-5,0-5s-3.22,5,0,5Z" transform="translate(-43.43 -107.15)"/><path class="cls-3" d="M139.25,135.62c3.22,0,3.22-5,0-5s-3.22,5,0,5Z" transform="translate(-43.43 -107.15)"/><path class="cls-3" d="M145.37,135.62c3.22,0,3.22-5,0-5s-3.22,5,0,5Z" transform="translate(-43.43 -107.15)"/><path class="cls-3" d="M143.74,128.36c3.22,0,3.22-5,0-5s-3.22,5,0,5Z" transform="translate(-43.43 -107.15)"/><path class="cls-3" d="M140.07,122c3.22,0,3.22-5,0-5s-3.22,5,0,5Z" transform="translate(-43.43 -107.15)"/><path class="cls-3" d="M255.59,114.5c3.22,0,3.22-5,0-5s-3.22,5,0,5Z" transform="translate(-43.43 -107.15)"/><path class="cls-3" d="M249.47,114.5c3.22,0,3.22-5,0-5s-3.22,5,0,5Z" transform="translate(-43.43 -107.15)"/><path class="cls-3" d="M122.14,112.15c3.22,0,3.22-5,0-5s-3.22,5,0,5Z" transform="translate(-43.43 -107.15)"/><path class="cls-3" d="M131.51,114.28c3.22,0,3.22-5,0-5s-3.22,5,0,5Z" transform="translate(-43.43 -107.15)"/><path class="cls-3" d="M142.11,114.71c3.22,0,3.22-5,0-5s-3.22,5,0,5Z" transform="translate(-43.43 -107.15)"/><path class="cls-3" d="M147.4,119.83c3.22,0,3.22-5,0-5s-3.22,5,0,5Z" transform="translate(-43.43 -107.15)"/><path class="cls-3" d="M48,134.76c3.22,0,3.22-5,0-5s-3.22,5,0,5Z" transform="translate(-43.43 -107.15)"/><path class="cls-3" d="M59.39,134.76c3.22,0,3.22-5,0-5s-3.22,5,0,5Z" transform="translate(-43.43 -107.15)"/><path class="cls-3" d="M71.61,136.9c3.22,0,3.22-5,0-5s-3.22,5,0,5Z" transform="translate(-43.43 -107.15)"/><path class="cls-3" d="M87.1,135.62c3.22,0,3.22-5,0-5s-3.22,5,0,5Z" transform="translate(-43.43 -107.15)"/><path class="cls-3" d="M46.76,125.8c3.22,0,3.22-5,0-5s-3.22,5,0,5Z" transform="translate(-43.43 -107.15)"/><path class="cls-3" d="M48.79,117.7c3.22,0,3.22-5,0-5s-3.22,5,0,5Z" transform="translate(-43.43 -107.15)"/><path class="cls-3" d="M58.57,117.27c3.22,0,3.22-5,0-5s-3.22,5,0,5Z" transform="translate(-43.43 -107.15)"/><path class="cls-3" d="M71.21,115.56c3.22,0,3.22-5,0-5s-3.22,5,0,5Z" transform="translate(-43.43 -107.15)"/><path class="cls-3" d="M78.95,116c3.22,0,3.22-5,0-5s-3.22,5,0,5Z" transform="translate(-43.43 -107.15)"/><path class="cls-3" d="M371.72,114.28c3.22,0,3.22-5,0-5s-3.22,5,0,5Z" transform="translate(-43.43 -107.15)"/><path class="cls-3" d="M362.31,113.24c3.22,0,3.22-5,0-5s-3.22,5,0,5Z" transform="translate(-43.43 -107.15)"/><path class="cls-3" d="M371.72,123.24c3.22,0,3.22-5,0-5s-3.22,5,0,5Z" transform="translate(-43.43 -107.15)"/><path class="cls-3" d="M180.82,114.5c3.22,0,3.22-5,0-5s-3.22,5,0,5Z" transform="translate(-43.43 -107.15)"/><path class="cls-3" d="M105.84,112.15c3.22,0,3.22-5,0-5s-3.22,5,0,5Z" transform="translate(-43.43 -107.15)"/><path class="cls-3" d="M84.24,112.15c3.22,0,3.22-5,0-5s-3.22,5,0,5Z" transform="translate(-43.43 -107.15)"/><path class="cls-3" d="M89.95,115.56c3.22,0,3.22-5,0-5s-3.22,5,0,5Z" transform="translate(-43.43 -107.15)"/><path class="cls-3" d="M191,122.6c3.22,0,3.22-5,0-5s-3.22,5,0,5Z" transform="translate(-43.43 -107.15)"/><path class="cls-3" d="M195.89,114.5c3.22,0,3.22-5,0-5s-3.22,5,0,5Z" transform="translate(-43.43 -107.15)"/><path class="cls-3" d="M195.89,124.74c3.22,0,3.22-5,0-5s-3.22,5,0,5Z" transform="translate(-43.43 -107.15)"/><path class="cls-3" d="M202,124.74c3.22,0,3.22-5,0-5s-3.22,5,0,5Z" transform="translate(-43.43 -107.15)"/><path class="cls-3" d="M202,120c3.22,0,3.22-5,0-5s-3.22,5,0,5Z" transform="translate(-43.43 -107.15)"/><path class="cls-3" d="M210.15,133.7c3.22,0,3.22-5,0-5s-3.22,5,0,5Z" transform="translate(-43.43 -107.15)"/><path class="cls-3" d="M191.82,132.42c3.22,0,3.22-5,0-5s-3.22,5,0,5Z" transform="translate(-43.43 -107.15)"/><path class="cls-3" d="M201.6,132.42c3.22,0,3.22-5,0-5s-3.22,5,0,5Z" transform="translate(-43.43 -107.15)"/><path class="cls-3" d="M209.75,128.15c3.22,0,3.22-5,0-5s-3.22,5,0,5Z" transform="translate(-43.43 -107.15)"/><path class="cls-3" d="M206.08,114.92c3.22,0,3.22-5,0-5s-3.22,5,0,5Z" transform="translate(-43.43 -107.15)"/><path class="cls-3" d="M179.19,124.31c3.22,0,3.22-5,0-5s-3.22,5,0,5Z" transform="translate(-43.43 -107.15)"/><path class="cls-3" d="M180.82,132.84c3.22,0,3.22-5,0-5s-3.22,5,0,5Z" transform="translate(-43.43 -107.15)"/><path class="cls-3" d="M167.37,132.84c3.22,0,3.22-5,0-5s-3.22,5,0,5Z" transform="translate(-43.43 -107.15)"/><path class="cls-3" d="M185.7,126.87c3.22,0,3.22-5,0-5s-3.22,5,0,5Z" transform="translate(-43.43 -107.15)"/><path class="cls-3" d="M160.85,125.59c3.22,0,3.22-5,0-5s-3.22,5,0,5Z" transform="translate(-43.43 -107.15)"/><path class="cls-3" d="M169,121.32c3.22,0,3.22-5,0-5s-3.22,5,0,5Z" transform="translate(-43.43 -107.15)"/><path class="cls-3" d="M172.26,135c3.22,0,3.22-5,0-5s-3.22,5,0,5Z" transform="translate(-43.43 -107.15)"/><path class="cls-3" d="M158.4,135c3.22,0,3.22-5,0-5s-3.22,5,0,5Z" transform="translate(-43.43 -107.15)"/><path class="cls-3" d="M171.85,127.72c3.22,0,3.22-5,0-5s-3.22,5,0,5Z" transform="translate(-43.43 -107.15)"/><path class="cls-3" d="M216.27,134.55c3.22,0,3.22-5,0-5s-3.22,5,0,5Z" transform="translate(-43.43 -107.15)"/><path class="cls-3" d="M211.38,123c3.22,0,3.22-5,0-5s-3.22,5,0,5Z" transform="translate(-43.43 -107.15)"/><path class="cls-3" d="M218.3,121.75c3.22,0,3.22-5,0-5s-3.22,5,0,5Z" transform="translate(-43.43 -107.15)"/><path class="cls-3" d="M219.12,130.28c3.22,0,3.22-5,0-5s-3.22,5,0,5Z" transform="translate(-43.43 -107.15)"/><path class="cls-3" d="M224,135.83c3.22,0,3.22-5,0-5s-3.22,5,0,5Z" transform="translate(-43.43 -107.15)"/><path class="cls-3" d="M236.64,136.68c3.22,0,3.22-5,0-5s-3.22,5,0,5Z" transform="translate(-43.43 -107.15)"/><path class="cls-3" d="M229.3,133.27c3.22,0,3.22-5,0-5s-3.22,5,0,5Z" transform="translate(-43.43 -107.15)"/><path class="cls-3" d="M225.23,126c3.22,0,3.22-5,0-5s-3.22,5,0,5Z" transform="translate(-43.43 -107.15)"/><path class="cls-3" d="M230.12,127.3c3.22,0,3.22-5,0-5s-3.22,5,0,5Z" transform="translate(-43.43 -107.15)"/><path class="cls-3" d="M232.16,127.3c3.22,0,3.22-5,0-5s-3.22,5,0,5Z" transform="translate(-43.43 -107.15)"/><path class="cls-3" d="M241.53,131.14c3.22,0,3.22-5,0-5s-3.22,5,0,5Z" transform="translate(-43.43 -107.15)"/><path class="cls-3" d="M228.08,121.75c3.22,0,3.22-5,0-5s-3.22,5,0,5Z" transform="translate(-43.43 -107.15)"/><path class="cls-3" d="M236.23,125.16c3.22,0,3.22-5,0-5s-3.22,5,0,5Z" transform="translate(-43.43 -107.15)"/><path class="cls-3" d="M249.27,132.42c3.22,0,3.22-5,0-5s-3.22,5,0,5Z" transform="translate(-43.43 -107.15)"/><path class="cls-3" d="M245.6,126c3.22,0,3.22-5,0-5s-3.22,5,0,5Z" transform="translate(-43.43 -107.15)"/><path class="cls-3" d="M218.71,114.92c3.22,0,3.22-5,0-5s-3.22,5,0,5Z" transform="translate(-43.43 -107.15)"/><path class="cls-3" d="M212.6,114.92c3.22,0,3.22-5,0-5s-3.22,5,0,5Z" transform="translate(-43.43 -107.15)"/><path class="cls-3" d="M227.67,116.2c3.22,0,3.22-5,0-5s-3.22,5,0,5Z" transform="translate(-43.43 -107.15)"/><path class="cls-3" d="M237,118.34c3.22,0,3.22-5,0-5s-3.22,5,0,5Z" transform="translate(-43.43 -107.15)"/><path class="cls-3" d="M247.64,118.76c3.22,0,3.22-5,0-5s-3.22,5,0,5Z" transform="translate(-43.43 -107.15)"/><path class="cls-3" d="M252.94,123.88c3.22,0,3.22-5,0-5s-3.22,5,0,5Z" transform="translate(-43.43 -107.15)"/><path class="cls-3" d="M152.29,129.86c3.22,0,3.22-5,0-5s-3.22,5,0,5Z" transform="translate(-43.43 -107.15)"/><path class="cls-3" d="M154.33,121.75c3.22,0,3.22-5,0-5s-3.22,5,0,5Z" transform="translate(-43.43 -107.15)"/><path class="cls-3" d="M164.11,121.32c3.22,0,3.22-5,0-5s-3.22,5,0,5Z" transform="translate(-43.43 -107.15)"/><path class="cls-3" d="M176.74,119.62c3.22,0,3.22-5,0-5s-3.22,5,0,5Z" transform="translate(-43.43 -107.15)"/><path class="cls-3" d="M184.48,120c3.22,0,3.22-5,0-5s-3.22,5,0,5Z" transform="translate(-43.43 -107.15)"/><path class="cls-3" d="M158.4,115.78c3.22,0,3.22-5,0-5s-3.22,5,0,5Z" transform="translate(-43.43 -107.15)"/><path class="cls-3" d="M167.37,115.35c3.22,0,3.22-5,0-5s-3.22,5,0,5Z" transform="translate(-43.43 -107.15)"/><path class="cls-3" d="M174.3,115.35c3.22,0,3.22-5,0-5s-3.22,5,0,5Z" transform="translate(-43.43 -107.15)"/><path class="cls-3" d="M189.78,116.2c3.22,0,3.22-5,0-5s-3.22,5,0,5Z" transform="translate(-43.43 -107.15)"/><path class="cls-3" d="M195.48,119.62c3.22,0,3.22-5,0-5s-3.22,5,0,5Z" transform="translate(-43.43 -107.15)"/><path class="cls-3" d="M294.91,122.39c3.22,0,3.22-5,0-5s-3.22,5,0,5Z" transform="translate(-43.43 -107.15)"/><path class="cls-3" d="M299.8,114.28c3.22,0,3.22-5,0-5s-3.22,5,0,5Z" transform="translate(-43.43 -107.15)"/><path class="cls-3" d="M299.8,124.52c3.22,0,3.22-5,0-5s-3.22,5,0,5Z" transform="translate(-43.43 -107.15)"/><path class="cls-3" d="M305.91,124.52c3.22,0,3.22-5,0-5s-3.22,5,0,5Z" transform="translate(-43.43 -107.15)"/><path class="cls-3" d="M305.91,119.83c3.22,0,3.22-5,0-5s-3.22,5,0,5Z" transform="translate(-43.43 -107.15)"/><path class="cls-3" d="M314.06,133.48c3.22,0,3.22-5,0-5s-3.22,5,0,5Z" transform="translate(-43.43 -107.15)"/><path class="cls-3" d="M295.72,132.2c3.22,0,3.22-5,0-5s-3.22,5,0,5Z" transform="translate(-43.43 -107.15)"/><path class="cls-3" d="M303.46,136.9c3.22,0,3.22-5,0-5s-3.22,5,0,5Z" transform="translate(-43.43 -107.15)"/><path class="cls-3" d="M305.5,132.2c3.22,0,3.22-5,0-5s-3.22,5,0,5Z" transform="translate(-43.43 -107.15)"/><path class="cls-3" d="M313.65,127.94c3.22,0,3.22-5,0-5s-3.22,5,0,5Z" transform="translate(-43.43 -107.15)"/><path class="cls-3" d="M310,114.71c3.22,0,3.22-5,0-5s-3.22,5,0,5Z" transform="translate(-43.43 -107.15)"/><path class="cls-3" d="M283.09,124.1c3.22,0,3.22-5,0-5s-3.22,5,0,5Z" transform="translate(-43.43 -107.15)"/><path class="cls-3" d="M284.72,132.63c3.22,0,3.22-5,0-5s-3.22,5,0,5Z" transform="translate(-43.43 -107.15)"/><path class="cls-3" d="M271.27,132.63c3.22,0,3.22-5,0-5s-3.22,5,0,5Z" transform="translate(-43.43 -107.15)"/><path class="cls-3" d="M289.61,126.66c3.22,0,3.22-5,0-5s-3.22,5,0,5Z" transform="translate(-43.43 -107.15)"/><path class="cls-3" d="M264.75,125.38c3.22,0,3.22-5,0-5s-3.22,5,0,5Z" transform="translate(-43.43 -107.15)"/><path class="cls-3" d="M272.9,121.11c3.22,0,3.22-5,0-5s-3.22,5,0,5Z" transform="translate(-43.43 -107.15)"/><path class="cls-3" d="M276.16,134.76c3.22,0,3.22-5,0-5s-3.22,5,0,5Z" transform="translate(-43.43 -107.15)"/><path class="cls-3" d="M262.31,134.76c3.22,0,3.22-5,0-5s-3.22,5,0,5Z" transform="translate(-43.43 -107.15)"/><path class="cls-3" d="M275.76,127.51c3.22,0,3.22-5,0-5s-3.22,5,0,5Z" transform="translate(-43.43 -107.15)"/><path class="cls-3" d="M320.17,134.34c3.22,0,3.22-5,0-5s-3.22,5,0,5Z" transform="translate(-43.43 -107.15)"/><path class="cls-3" d="M315.28,122.82c3.22,0,3.22-5,0-5s-3.22,5,0,5Z" transform="translate(-43.43 -107.15)"/><path class="cls-3" d="M322.21,121.54c3.22,0,3.22-5,0-5s-3.22,5,0,5Z" transform="translate(-43.43 -107.15)"/><path class="cls-3" d="M323,130.07c3.22,0,3.22-5,0-5s-3.22,5,0,5Z" transform="translate(-43.43 -107.15)"/><path class="cls-3" d="M327.91,135.62c3.22,0,3.22-5,0-5s-3.22,5,0,5Z" transform="translate(-43.43 -107.15)"/><path class="cls-3" d="M340.54,136.47c3.22,0,3.22-5,0-5s-3.22,5,0,5Z" transform="translate(-43.43 -107.15)"/><path class="cls-3" d="M333.21,133.06c3.22,0,3.22-5,0-5s-3.22,5,0,5Z" transform="translate(-43.43 -107.15)"/><path class="cls-3" d="M329.13,125.8c3.22,0,3.22-5,0-5s-3.22,5,0,5Z" transform="translate(-43.43 -107.15)"/><path class="cls-3" d="M334,127.08c3.22,0,3.22-5,0-5s-3.22,5,0,5Z" transform="translate(-43.43 -107.15)"/><path class="cls-3" d="M336.06,127.08c3.22,0,3.22-5,0-5s-3.22,5,0,5Z" transform="translate(-43.43 -107.15)"/><path class="cls-3" d="M345.43,130.92c3.22,0,3.22-5,0-5s-3.22,5,0,5Z" transform="translate(-43.43 -107.15)"/><path class="cls-3" d="M332,121.54c3.22,0,3.22-5,0-5s-3.22,5,0,5Z" transform="translate(-43.43 -107.15)"/><path class="cls-3" d="M340.14,125c3.22,0,3.22-5,0-5s-3.22,5,0,5Z" transform="translate(-43.43 -107.15)"/><path class="cls-3" d="M353.18,132.2c3.22,0,3.22-5,0-5s-3.22,5,0,5Z" transform="translate(-43.43 -107.15)"/><path class="cls-3" d="M349.51,125.8c3.22,0,3.22-5,0-5s-3.22,5,0,5Z" transform="translate(-43.43 -107.15)"/><path class="cls-3" d="M322.62,114.71c3.22,0,3.22-5,0-5s-3.22,5,0,5Z" transform="translate(-43.43 -107.15)"/><path class="cls-3" d="M316.5,114.71c3.22,0,3.22-5,0-5s-3.22,5,0,5Z" transform="translate(-43.43 -107.15)"/><path class="cls-3" d="M331.58,116c3.22,0,3.22-5,0-5s-3.22,5,0,5Z" transform="translate(-43.43 -107.15)"/><path class="cls-3" d="M341,118.12c3.22,0,3.22-5,0-5s-3.22,5,0,5Z" transform="translate(-43.43 -107.15)"/><path class="cls-3" d="M351.55,118.55c3.22,0,3.22-5,0-5s-3.22,5,0,5Z" transform="translate(-43.43 -107.15)"/><path class="cls-3" d="M356.84,123.67c3.22,0,3.22-5,0-5s-3.22,5,0,5Z" transform="translate(-43.43 -107.15)"/><path class="cls-3" d="M256.2,129.64c3.22,0,3.22-5,0-5s-3.22,5,0,5Z" transform="translate(-43.43 -107.15)"/><path class="cls-3" d="M258.23,121.54c3.22,0,3.22-5,0-5s-3.22,5,0,5Z" transform="translate(-43.43 -107.15)"/><path class="cls-3" d="M268,121.11c3.22,0,3.22-5,0-5s-3.22,5,0,5Z" transform="translate(-43.43 -107.15)"/><path class="cls-3" d="M280.65,119.4c3.22,0,3.22-5,0-5s-3.22,5,0,5Z" transform="translate(-43.43 -107.15)"/><path class="cls-3" d="M288.39,119.83c3.22,0,3.22-5,0-5s-3.22,5,0,5Z" transform="translate(-43.43 -107.15)"/><path class="cls-3" d="M262.31,115.56c3.22,0,3.22-5,0-5s-3.22,5,0,5Z" transform="translate(-43.43 -107.15)"/><path class="cls-3" d="M271.27,115.14c3.22,0,3.22-5,0-5s-3.22,5,0,5Z" transform="translate(-43.43 -107.15)"/><path class="cls-3" d="M278.2,115.14c3.22,0,3.22-5,0-5s-3.22,5,0,5Z" transform="translate(-43.43 -107.15)"/><path class="cls-3" d="M293.68,116c3.22,0,3.22-5,0-5s-3.22,5,0,5Z" transform="translate(-43.43 -107.15)"/><path class="cls-3" d="M299.39,119.4c3.22,0,3.22-5,0-5s-3.22,5,0,5Z" transform="translate(-43.43 -107.15)"/><path class="cls-3" d="M359.49,134.34c3.22,0,3.22-5,0-5s-3.22,5,0,5Z" transform="translate(-43.43 -107.15)"/><path class="cls-3" d="M360.31,128.36c3.22,0,3.22-5,0-5s-3.22,5,0,5Z" transform="translate(-43.43 -107.15)"/><path class="cls-3" d="M362.34,128.36c3.22,0,3.22-5,0-5s-3.22,5,0,5Z" transform="translate(-43.43 -107.15)"/><path class="cls-3" d="M371.72,132.2c3.22,0,3.22-5,0-5s-3.22,5,0,5Z" transform="translate(-43.43 -107.15)"/><path class="cls-3" d="M358.27,122.82c3.22,0,3.22-5,0-5s-3.22,5,0,5Z" transform="translate(-43.43 -107.15)"/><path class="cls-3" d="M366.42,126.23c3.22,0,3.22-5,0-5s-3.22,5,0,5Z" transform="translate(-43.43 -107.15)"/><path class="cls-3" d="M379.46,133.48c3.22,0,3.22-5,0-5s-3.22,5,0,5Z" transform="translate(-43.43 -107.15)"/><path class="cls-3" d="M375.79,127.08c3.22,0,3.22-5,0-5s-3.22,5,0,5Z" transform="translate(-43.43 -107.15)"/><path class="cls-3" d="M357.86,117.27c3.22,0,3.22-5,0-5s-3.22,5,0,5Z" transform="translate(-43.43 -107.15)"/><path class="cls-3" d="M367.23,119.4c3.22,0,3.22-5,0-5s-3.22,5,0,5Z" transform="translate(-43.43 -107.15)"/><path class="cls-3" d="M377.83,119.83c3.22,0,3.22-5,0-5s-3.22,5,0,5Z" transform="translate(-43.43 -107.15)"/><path class="cls-3" d="M383.12,125c3.22,0,3.22-5,0-5s-3.22,5,0,5Z" transform="translate(-43.43 -107.15)"/></svg>