<svg id="Слой_1" data-name="Слой 1" xmlns="http://www.w3.org/2000/svg" viewBox="0 0 487.97 49.84"><defs><style>.cls-1{fill:#422918;}.cls-2{font-size:20px;fill:#141414;font-family:OpenSans, Open Sans;}.cls-3{fill:#f4ede9;}.cls-4{fill:#442518;}</style></defs><title>tetx9</title><rect class="cls-1" y="4.49" width="39.42" height="39.42"/><text class="cls-2" transform="translate(53.95 21.77)">эспрессо<tspan x="32.21" y="22">60 мл</tspan></text><rect class="cls-3" x="160.08" y="4.45" width="39.42" height="39.42"/><text class="cls-2" transform="translate(212.35 40.35)">мороженое</text><text class="cls-2" transform="translate(417.74 18.02)">тертый<tspan x="-16.09" y="22">шоколад</tspan></text><path class="cls-4" d="M391.1,318.52c3.22,0,3.22-5,0-5s-3.22,5,0,5Z" transform="translate(-33.39 -312.21)"/><path class="cls-4" d="M382.69,318.52c3.22,0,3.22-5,0-5s-3.22,5,0,5Z" transform="translate(-33.39 -312.21)"/><path class="cls-4" d="M391.1,327.08c3.22,0,3.22-5,0-5s-3.22,5,0,5Z" transform="translate(-33.39 -312.21)"/><path class="cls-4" d="M376.23,327.49c3.22,0,3.22-5,0-5s-3.22,5,0,5Z" transform="translate(-33.39 -312.21)"/><path class="cls-4" d="M382.66,326.67c3.22,0,3.22-5,0-5s-3.22,5,0,5Z" transform="translate(-33.39 -312.21)"/><path class="cls-4" d="M385.8,329.93c3.22,0,3.22-5,0-5s-3.22,5,0,5Z" transform="translate(-33.39 -312.21)"/><path class="cls-4" d="M376.25,320.38c3.22,0,3.22-5,0-5s-3.22,5,0,5Z" transform="translate(-33.39 -312.21)"/><path class="cls-4" d="M386.62,323.41c3.22,0,3.22-5,0-5s-3.22,5,0,5Z" transform="translate(-33.39 -312.21)"/><path class="cls-4" d="M389.13,335.87c3.22,0,3.22-5,0-5s-3.22,5,0,5Z" transform="translate(-33.39 -312.21)"/><path class="cls-4" d="M379.72,334.87c3.22,0,3.22-5,0-5s-3.22,5,0,5Z" transform="translate(-33.39 -312.21)"/><path class="cls-4" d="M389.13,344.43c3.22,0,3.22-5,0-5s-3.22,5,0,5Z" transform="translate(-33.39 -312.21)"/><path class="cls-4" d="M375.26,344.84c3.22,0,3.22-5,0-5s-3.22,5,0,5Z" transform="translate(-33.39 -312.21)"/><path class="cls-4" d="M374.68,333c3.22,0,3.22-5,0-5s-3.22,5,0,5Z" transform="translate(-33.39 -312.21)"/><path class="cls-4" d="M383.83,347.28c3.22,0,3.22-5,0-5s-3.22,5,0,5Z" transform="translate(-33.39 -312.21)"/><path class="cls-4" d="M375.27,338.73c3.22,0,3.22-5,0-5s-3.22,5,0,5Z" transform="translate(-33.39 -312.21)"/><path class="cls-4" d="M384.65,340.76c3.22,0,3.22-5,0-5s-3.22,5,0,5Z" transform="translate(-33.39 -312.21)"/><path class="cls-4" d="M406,345c3.22,0,3.22-5,0-5s-3.22,5,0,5Z" transform="translate(-33.39 -312.21)"/><path class="cls-4" d="M396.57,344c3.22,0,3.22-5,0-5s-3.22,5,0,5Z" transform="translate(-33.39 -312.21)"/><path class="cls-4" d="M406,353.58c3.22,0,3.22-5,0-5s-3.22,5,0,5Z" transform="translate(-33.39 -312.21)"/><path class="cls-4" d="M390.1,354c3.22,0,3.22-5,0-5s-3.22,5,0,5Z" transform="translate(-33.39 -312.21)"/><path class="cls-4" d="M394.53,357.17c3.22,0,3.22-5,0-5s-3.22,5,0,5Z" transform="translate(-33.39 -312.21)"/><path class="cls-4" d="M400.68,356.43c3.22,0,3.22-5,0-5s-3.22,5,0,5Z" transform="translate(-33.39 -312.21)"/><path class="cls-4" d="M387.12,349.88c3.22,0,3.22-5,0-5s-3.22,5,0,5Z" transform="translate(-33.39 -312.21)"/><path class="cls-4" d="M401.49,349.91c3.22,0,3.22-5,0-5s-3.22,5,0,5Z" transform="translate(-33.39 -312.21)"/><path class="cls-4" d="M411.11,329.67c3.22,0,3.22-5,0-5s-3.22,5,0,5Z" transform="translate(-33.39 -312.21)"/><path class="cls-4" d="M408.11,338.23c3.22,0,3.22-5,0-5s-3.22,5,0,5Z" transform="translate(-33.39 -312.21)"/><path class="cls-4" d="M393.24,338.63c3.22,0,3.22-5,0-5s-3.22,5,0,5Z" transform="translate(-33.39 -312.21)"/><path class="cls-4" d="M398.7,334.87c3.22,0,3.22-5,0-5s-3.22,5,0,5Z" transform="translate(-33.39 -312.21)"/><path class="cls-4" d="M402.82,341.08c3.22,0,3.22-5,0-5s-3.22,5,0,5Z" transform="translate(-33.39 -312.21)"/><path class="cls-4" d="M394.26,332.52c3.22,0,3.22-5,0-5s-3.22,5,0,5Z" transform="translate(-33.39 -312.21)"/><path class="cls-4" d="M403.63,334.56c3.22,0,3.22-5,0-5s-3.22,5,0,5Z" transform="translate(-33.39 -312.21)"/><path class="cls-4" d="M412.25,318.21c3.22,0,3.22-5,0-5s-3.22,5,0,5Z" transform="translate(-33.39 -312.21)"/><path class="cls-4" d="M400.84,317.21c3.22,0,3.22-5,0-5s-3.22,5,0,5Z" transform="translate(-33.39 -312.21)"/><path class="cls-4" d="M408.25,324.77c3.22,0,3.22-5,0-5s-3.22,5,0,5Z" transform="translate(-33.39 -312.21)"/><path class="cls-4" d="M395.38,327.17c3.22,0,3.22-5,0-5s-3.22,5,0,5Z" transform="translate(-33.39 -312.21)"/><path class="cls-4" d="M399.81,328.36c3.22,0,3.22-5,0-5s-3.22,5,0,5Z" transform="translate(-33.39 -312.21)"/><path class="cls-4" d="M405,329.62c3.22,0,3.22-5,0-5s-3.22,5,0,5Z" transform="translate(-33.39 -312.21)"/><path class="cls-4" d="M396.4,321.06c3.22,0,3.22-5,0-5s-3.22,5,0,5Z" transform="translate(-33.39 -312.21)"/><path class="cls-4" d="M406.77,318.1c3.22,0,3.22-5,0-5s-3.22,5,0,5Z" transform="translate(-33.39 -312.21)"/><path class="cls-4" d="M415.55,347.67c3.22,0,3.22-5,0-5s-3.22,5,0,5Z" transform="translate(-33.39 -312.21)"/><path class="cls-4" d="M411.14,343.67c3.22,0,3.22-5,0-5s-3.22,5,0,5Z" transform="translate(-33.39 -312.21)"/><path class="cls-4" d="M415.55,355.23c3.22,0,3.22-5,0-5s-3.22,5,0,5Z" transform="translate(-33.39 -312.21)"/><path class="cls-4" d="M396.1,350.82c3.22,0,3.22-5,0-5s-3.22,5,0,5Z" transform="translate(-33.39 -312.21)"/><path class="cls-4" d="M410.25,357.08c3.22,0,3.22-5,0-5s-3.22,5,0,5Z" transform="translate(-33.39 -312.21)"/><path class="cls-4" d="M411.07,350.56c3.22,0,3.22-5,0-5s-3.22,5,0,5Z" transform="translate(-33.39 -312.21)"/><path class="cls-4" d="M375.26,356c3.22,0,3.22-5,0-5s-3.22,5,0,5Z" transform="translate(-33.39 -312.21)"/><path class="cls-4" d="M379.68,352.17c3.22,0,3.22-5,0-5s-3.22,5,0,5Z" transform="translate(-33.39 -312.21)"/><path class="cls-4" d="M383.83,357.43c3.22,0,3.22-5,0-5s-3.22,5,0,5Z" transform="translate(-33.39 -312.21)"/><path class="cls-4" d="M413.6,324.78c3.22,0,3.22-5,0-5s-3.22,5,0,5Z" transform="translate(-33.39 -312.21)"/><path class="cls-4" d="M403.19,322.78c3.22,0,3.22-5,0-5s-3.22,5,0,5Z" transform="translate(-33.39 -312.21)"/><path class="cls-4" d="M414.6,333.34c3.22,0,3.22-5,0-5s-3.22,5,0,5Z" transform="translate(-33.39 -312.21)"/><path class="cls-4" d="M415.3,340.19c3.22,0,3.22-5,0-5s-3.22,5,0,5Z" transform="translate(-33.39 -312.21)"/><path class="cls-4" d="M409.11,332.67c3.22,0,3.22-5,0-5s-3.22,5,0,5Z" transform="translate(-33.39 -312.21)"/></svg>